G04 ===== Begin FILE IDENTIFICATION =====*
G04 File Format:  Gerber RS274X*
G04 ===== End FILE IDENTIFICATION =====*
%FSLAX24Y24*%
%MOIN*%
%SFA1.0000B1.0000*%
%OFA0.0B0.0*%
%ADD14C,0.020000*%
%ADD15C,0.027559*%
%ADD16C,0.098425*%
%LNVIA_TOP METAL_BOT_COVER*%
%IPPOS*%
%LPD*%
G75*
D14*
X-32854Y-18150D03*
X-31113Y-32273D03*
X-29232Y-18150D03*
X-25373D03*
X-27302Y-32273D03*
X-23491D03*
X-21751Y-18150D03*
X-20376Y-32273D03*
X-34228D03*
X-31114Y-32289D03*
X-27315D03*
X-23487Y-32304D03*
X-23488Y-32320D03*
X-20385Y-32245D03*
X-20386Y-32261D03*
X-29235Y-18150D03*
X-25389Y-18138D03*
X-21766Y-18134D03*
X-21783Y-18122D03*
D15*
X-32818Y-17566D03*
X-32842Y-16806D03*
X-32227Y-17132D03*
X-33381Y-17168D03*
X-29223Y-17562D03*
X-29208Y-16881D03*
X-28633Y-17129D03*
X-29786Y-17164D03*
X-25369Y-17566D03*
X-25393Y-16766D03*
X-24779Y-17132D03*
X-25932Y-17168D03*
X-21763Y-17550D03*
X-21786Y-16751D03*
X-21172Y-17117D03*
X-22326Y-17152D03*
X-34235Y-33695D03*
X-34259Y-32896D03*
X-33645Y-33262D03*
X-34798Y-33298D03*
X-31168Y-33739D03*
X-31192Y-32940D03*
X-30578Y-33306D03*
X-31731Y-33341D03*
X-27322Y-33739D03*
X-27345Y-32940D03*
X-26731Y-33306D03*
X-27885Y-33341D03*
X-23523Y-33711D03*
X-23546Y-32912D03*
X-22932Y-33278D03*
X-24086Y-33314D03*
X-20408Y-33770D03*
X-20432Y-32971D03*
X-19818Y-33337D03*
X-20971Y-33373D03*
D16*
X-29184Y-34089D03*
X-36912Y-34073D03*
X-25298Y-34093D03*
X-17716Y-34069D03*
X-33231Y-34077D03*
X-21534Y-34069D03*
X-29184Y-16294D03*
X-36912Y-16278D03*
X-25298Y-16298D03*
X-33231Y-16282D03*
X-21534Y-16274D03*
D15*
X-35752Y-34538D03*
X-34531D03*
X-32091Y-34499D03*
X-32524Y-33436D03*
X-30909Y-34499D03*
X-29846D03*
X-28232Y-34459D03*
X-27287Y-34499D03*
X-26303Y-34459D03*
X-24335D03*
X-35831Y-33554D03*
X-24807Y-33357D03*
X-29768Y-33436D03*
X-28665D03*
X-23390Y-34499D03*
X-22484D03*
X-22012Y-33357D03*
X-20673Y-34499D03*
X-25988Y-33436D03*
X-18626Y-34459D03*
X-18823Y-33554D03*
X-35988Y-15877D03*
Y-16782D03*
X-35083Y-15877D03*
X-35122Y-16782D03*
X-34098Y-15916D03*
X-19689Y-34499D03*
X-34217Y-16782D03*
X-31224Y-15956D03*
X-30201Y-15995D03*
X-31461Y-16822D03*
X-30594D03*
X-28114Y-15956D03*
X-27287Y-15916D03*
X-28035Y-16743D03*
X-26539Y-16704D03*
X-27287Y-16743D03*
X-24335Y-15916D03*
X-23587Y-15877D03*
X-22799Y-15916D03*
X-24374Y-16625D03*
X-32130Y-15995D03*
X-23665Y-16625D03*
X-22799Y-16664D03*
X-20319Y-15916D03*
X-20358Y-16743D03*
X-19413Y-15916D03*
X-26264D03*
X-19531Y-16704D03*
X-18705Y-16782D03*
X-18508Y-15916D03*
D14*
X-9428Y-18150D03*
X-7688Y-32273D03*
X-5807Y-18150D03*
X-1947D03*
X-3877Y-32273D03*
X-66D03*
X1674Y-18150D03*
X3049Y-32273D03*
X-10803D03*
X-7689Y-32289D03*
X-3890D03*
X-62Y-32304D03*
X-63Y-32320D03*
X3040Y-32245D03*
X3039Y-32261D03*
X-5810Y-18150D03*
X-1964Y-18138D03*
X1659Y-18134D03*
X1643Y-18122D03*
D15*
X-9393Y-17566D03*
X-9416Y-16806D03*
X-8802Y-17132D03*
X-9956Y-17168D03*
X-5798Y-17562D03*
X-5782Y-16881D03*
X-5208Y-17129D03*
X-6361Y-17164D03*
X-1944Y-17566D03*
X-1968Y-16766D03*
X-1353Y-17132D03*
X-2507Y-17168D03*
X1662Y-17550D03*
X1639Y-16751D03*
X2253Y-17117D03*
X1099Y-17152D03*
X-10810Y-33695D03*
X-10834Y-32896D03*
X-10219Y-33262D03*
X-11373Y-33298D03*
X-7743Y-33739D03*
X-7767Y-32940D03*
X-7153Y-33306D03*
X-8306Y-33341D03*
X-3897Y-33739D03*
X-3920Y-32940D03*
X-3306Y-33306D03*
X-4460Y-33341D03*
X-97Y-33711D03*
X-121Y-32912D03*
X493Y-33278D03*
X-660Y-33314D03*
X3017Y-33770D03*
X2993Y-32971D03*
X3607Y-33337D03*
X2454Y-33373D03*
D16*
X-5759Y-34089D03*
X-13487Y-34073D03*
X-1873Y-34093D03*
X5710Y-34069D03*
X-9806Y-34077D03*
X1891Y-34069D03*
X-5759Y-16294D03*
X-13487Y-16278D03*
X-1873Y-16298D03*
X5710Y-16274D03*
X-9806Y-16282D03*
X1891Y-16274D03*
D15*
X-12327Y-34538D03*
X-11106D03*
X-8665Y-34499D03*
X-9098Y-33436D03*
X-7484Y-34499D03*
X-6421D03*
X-4807Y-34459D03*
X-3862Y-34499D03*
X-2878Y-34459D03*
X-909D03*
X-12406Y-33554D03*
X-1382Y-33357D03*
X-6343Y-33436D03*
X-5240D03*
X35Y-34499D03*
X941D03*
X1413Y-33357D03*
X2752Y-34499D03*
X-2563Y-33436D03*
X4799Y-34459D03*
X4602Y-33554D03*
X-12563Y-15877D03*
Y-16782D03*
X-11657Y-15877D03*
X-11697Y-16782D03*
X-10673Y-15916D03*
X3736Y-34499D03*
X-10791Y-16782D03*
X-7799Y-15956D03*
X-6776Y-15995D03*
X-8035Y-16822D03*
X-7169D03*
X-4689Y-15956D03*
X-3862Y-15916D03*
X-4610Y-16743D03*
X-3114Y-16704D03*
X-3862Y-16743D03*
X-909Y-15916D03*
X-161Y-15877D03*
X626Y-15916D03*
X-949Y-16625D03*
X-8705Y-15995D03*
X-240Y-16625D03*
X626Y-16664D03*
X3106Y-15916D03*
X3067Y-16743D03*
X4012Y-15916D03*
X-2839D03*
X3894Y-16704D03*
X4720Y-16782D03*
X4917Y-15916D03*
D14*
X-32854Y-40552D03*
X-31113Y-54675D03*
X-29232Y-40552D03*
X-25373D03*
X-27302Y-54675D03*
X-23491D03*
X-21751Y-40552D03*
X-20376Y-54675D03*
X-34228D03*
X-31114Y-54690D03*
X-27315D03*
X-23487Y-54706D03*
X-23488Y-54722D03*
X-20385Y-54647D03*
X-20386Y-54663D03*
X-29235Y-40552D03*
X-25389Y-40540D03*
X-21766Y-40536D03*
X-21783Y-40524D03*
D15*
X-32818Y-39967D03*
X-32842Y-39207D03*
X-32227Y-39534D03*
X-33381Y-39569D03*
X-29223Y-39963D03*
X-29208Y-39282D03*
X-28633Y-39530D03*
X-29786Y-39566D03*
X-25369Y-39967D03*
X-25393Y-39168D03*
X-24779Y-39534D03*
X-25932Y-39569D03*
X-21763Y-39951D03*
X-21786Y-39152D03*
X-21172Y-39518D03*
X-22326Y-39554D03*
X-34235Y-56097D03*
X-34259Y-55298D03*
X-33645Y-55664D03*
X-34798Y-55699D03*
X-31168Y-56140D03*
X-31192Y-55341D03*
X-30578Y-55707D03*
X-31731Y-55743D03*
X-27322Y-56140D03*
X-27345Y-55341D03*
X-26731Y-55707D03*
X-27885Y-55743D03*
X-23523Y-56113D03*
X-23546Y-55314D03*
X-22932Y-55680D03*
X-24086Y-55715D03*
X-20408Y-56172D03*
X-20432Y-55373D03*
X-19818Y-55739D03*
X-20971Y-55774D03*
D16*
X-29184Y-56491D03*
X-36912Y-56475D03*
X-25298Y-56495D03*
X-17716Y-56471D03*
X-33231Y-56479D03*
X-21534Y-56471D03*
X-29184Y-38695D03*
X-36912Y-38680D03*
X-25298Y-38699D03*
X-17716Y-38676D03*
X-33231Y-38684D03*
X-21534Y-38676D03*
D15*
X-35752Y-56940D03*
X-34531D03*
X-32091Y-56900D03*
X-32524Y-55837D03*
X-30909Y-56900D03*
X-29846D03*
X-28232Y-56861D03*
X-27287Y-56900D03*
X-26303Y-56861D03*
X-24335D03*
X-35831Y-55956D03*
X-24807Y-55759D03*
X-29768Y-55837D03*
X-28665D03*
X-23390Y-56900D03*
X-22484D03*
X-22012Y-55759D03*
X-20673Y-56900D03*
X-25988Y-55837D03*
X-18626Y-56861D03*
X-18823Y-55956D03*
X-35988Y-38278D03*
Y-39184D03*
X-35083Y-38278D03*
X-35122Y-39184D03*
X-34098Y-38318D03*
X-19689Y-56900D03*
X-34217Y-39184D03*
X-31224Y-38357D03*
X-30201Y-38396D03*
X-31461Y-39223D03*
X-30594D03*
X-28114Y-38357D03*
X-27287Y-38318D03*
X-28035Y-39144D03*
X-26539Y-39105D03*
X-27287Y-39144D03*
X-24335Y-38318D03*
X-23587Y-38278D03*
X-22799Y-38318D03*
X-24374Y-39026D03*
X-32130Y-38396D03*
X-23665Y-39026D03*
X-22799Y-39066D03*
X-20319Y-38318D03*
X-20358Y-39144D03*
X-19413Y-38318D03*
X-26264D03*
X-19531Y-39105D03*
X-18705Y-39184D03*
X-18508Y-38318D03*
D14*
X-9428Y-40473D03*
X-7688Y-54596D03*
X-5807Y-40473D03*
X-1947D03*
X-3877Y-54596D03*
X-66D03*
X1674Y-40473D03*
X3049Y-54596D03*
X-10803D03*
X-7689Y-54612D03*
X-3890D03*
X-62Y-54627D03*
X-63Y-54643D03*
X3040Y-54568D03*
X3039Y-54584D03*
X-5810Y-40473D03*
X-1964Y-40461D03*
X1659Y-40457D03*
X1643Y-40445D03*
D15*
X-9393Y-39888D03*
X-9416Y-39129D03*
X-8802Y-39455D03*
X-9956Y-39491D03*
X-5798Y-39884D03*
X-5782Y-39203D03*
X-5208Y-39451D03*
X-6361Y-39487D03*
X-1944Y-39888D03*
X-1968Y-39089D03*
X-1353Y-39455D03*
X-2507Y-39491D03*
X1662Y-39873D03*
X1639Y-39073D03*
X2253Y-39440D03*
X1099Y-39475D03*
X-10810Y-56018D03*
X-10834Y-55219D03*
X-10219Y-55585D03*
X-11373Y-55621D03*
X-7743Y-56062D03*
X-7767Y-55262D03*
X-7153Y-55629D03*
X-8306Y-55664D03*
X-3897Y-56062D03*
X-3920Y-55262D03*
X-3306Y-55629D03*
X-4460Y-55664D03*
X-97Y-56034D03*
X-121Y-55235D03*
X493Y-55601D03*
X-660Y-55636D03*
X3017Y-56093D03*
X2993Y-55294D03*
X3607Y-55660D03*
X2454Y-55695D03*
D16*
X-5759Y-56412D03*
X-13487Y-56396D03*
X-1873Y-56416D03*
X5710Y-56392D03*
X-9806Y-56400D03*
X1891Y-56392D03*
X-5759Y-38617D03*
X-13487Y-38601D03*
X-1873Y-38621D03*
X5710Y-38597D03*
X-9806Y-38605D03*
X1891Y-38597D03*
D15*
X-12327Y-56861D03*
X-11106D03*
X-8665Y-56822D03*
X-9098Y-55759D03*
X-7484Y-56822D03*
X-6421D03*
X-4807Y-56782D03*
X-3862Y-56822D03*
X-2878Y-56782D03*
X-909D03*
X-12406Y-55877D03*
X-1382Y-55680D03*
X-6343Y-55759D03*
X-5240D03*
X35Y-56822D03*
X941D03*
X1413Y-55680D03*
X2752Y-56822D03*
X-2563Y-55759D03*
X4799Y-56782D03*
X4602Y-55877D03*
X-12563Y-38200D03*
Y-39105D03*
X-11657Y-38200D03*
X-11697Y-39105D03*
X-10673Y-38239D03*
X3736Y-56822D03*
X-10791Y-39105D03*
X-7799Y-38278D03*
X-6776Y-38318D03*
X-8035Y-39144D03*
X-7169D03*
X-4689Y-38278D03*
X-3862Y-38239D03*
X-4610Y-39066D03*
X-3114Y-39026D03*
X-3862Y-39066D03*
X-909Y-38239D03*
X-161Y-38200D03*
X626Y-38239D03*
X-949Y-38948D03*
X-8705Y-38318D03*
X-240Y-38948D03*
X626Y-38987D03*
X3106Y-38239D03*
X3067Y-39066D03*
X4012Y-38239D03*
X-2839D03*
X3894Y-39026D03*
X4720Y-39105D03*
X4917Y-38239D03*
D14*
X-32854Y-62953D03*
X-31113Y-77076D03*
X-29232Y-62953D03*
X-25373D03*
X-27302Y-77076D03*
X-23491D03*
X-21751Y-62953D03*
X-20376Y-77076D03*
X-34228D03*
X-31114Y-77092D03*
X-27315D03*
X-23487Y-77108D03*
X-23488Y-77123D03*
X-20385Y-77049D03*
X-20386Y-77064D03*
X-29235Y-62953D03*
X-25389Y-62941D03*
X-21766Y-62937D03*
X-21783Y-62926D03*
D15*
X-32818Y-62369D03*
X-32842Y-61609D03*
X-32227Y-61936D03*
X-33381Y-61971D03*
X-29223Y-62365D03*
X-29208Y-61684D03*
X-28633Y-61932D03*
X-29786Y-61967D03*
X-25369Y-62369D03*
X-25393Y-61569D03*
X-24779Y-61936D03*
X-25932Y-61971D03*
X-21763Y-62353D03*
X-21786Y-61554D03*
X-21172Y-61920D03*
X-22326Y-61955D03*
X-34235Y-78499D03*
X-34259Y-77699D03*
X-33645Y-78066D03*
X-34798Y-78101D03*
X-31168Y-78542D03*
X-31192Y-77743D03*
X-30578Y-78109D03*
X-31731Y-78144D03*
X-27322Y-78542D03*
X-27345Y-77743D03*
X-26731Y-78109D03*
X-27885Y-78144D03*
X-23523Y-78514D03*
X-23546Y-77715D03*
X-22932Y-78081D03*
X-24086Y-78117D03*
X-20408Y-78573D03*
X-20432Y-77774D03*
X-19818Y-78140D03*
X-20971Y-78176D03*
D16*
X-29184Y-78892D03*
X-36912Y-78877D03*
X-25298Y-78896D03*
X-17716Y-78873D03*
X-33231Y-78881D03*
X-21534Y-78873D03*
X-29184Y-61097D03*
X-36912Y-61081D03*
X-25298Y-61101D03*
X-17716Y-61077D03*
X-33231Y-61085D03*
X-21534Y-61077D03*
D15*
X-35752Y-79341D03*
X-34531D03*
X-32091Y-79302D03*
X-32524Y-78239D03*
X-30909Y-79302D03*
X-29846D03*
X-28232Y-79263D03*
X-27287Y-79302D03*
X-26303Y-79263D03*
X-24335D03*
X-35831Y-78357D03*
X-24807Y-78160D03*
X-29768Y-78239D03*
X-28665D03*
X-23390Y-79302D03*
X-22484D03*
X-22012Y-78160D03*
X-20673Y-79302D03*
X-25988Y-78239D03*
X-18626Y-79263D03*
X-18823Y-78357D03*
X-35988Y-60680D03*
Y-61585D03*
X-35083Y-60680D03*
X-35122Y-61585D03*
X-34098Y-60719D03*
X-19689Y-79302D03*
X-34217Y-61585D03*
X-31224Y-60759D03*
X-30201Y-60798D03*
X-31461Y-61625D03*
X-30594D03*
X-28114Y-60759D03*
X-27287Y-60719D03*
X-28035Y-61546D03*
X-26539Y-61507D03*
X-27287Y-61546D03*
X-24335Y-60719D03*
X-23587Y-60680D03*
X-22799Y-60719D03*
X-24374Y-61428D03*
X-32130Y-60798D03*
X-23665Y-61428D03*
X-22799Y-61467D03*
X-20319Y-60719D03*
X-20358Y-61546D03*
X-19413Y-60719D03*
X-26264D03*
X-19531Y-61507D03*
X-18705Y-61585D03*
X-18508Y-60719D03*
D14*
X-9428Y-62953D03*
X-7688Y-77076D03*
X-5807Y-62953D03*
X-1947D03*
X-3877Y-77076D03*
X-66D03*
X1674Y-62953D03*
X3049Y-77076D03*
X-10803D03*
X-7689Y-77092D03*
X-3890D03*
X-62Y-77108D03*
X-63Y-77123D03*
X3040Y-77049D03*
X3039Y-77064D03*
X-5810Y-62953D03*
X-1964Y-62941D03*
X1659Y-62937D03*
X1643Y-62926D03*
D15*
X-9393Y-62369D03*
X-9416Y-61609D03*
X-8802Y-61936D03*
X-9956Y-61971D03*
X-5798Y-62365D03*
X-5782Y-61684D03*
X-5208Y-61932D03*
X-6361Y-61967D03*
X-1944Y-62369D03*
X-1968Y-61569D03*
X-1353Y-61936D03*
X-2507Y-61971D03*
X1662Y-62353D03*
X1639Y-61554D03*
X2253Y-61920D03*
X1099Y-61955D03*
X-10810Y-78499D03*
X-10834Y-77699D03*
X-10219Y-78066D03*
X-11373Y-78101D03*
X-7743Y-78542D03*
X-7767Y-77743D03*
X-7153Y-78109D03*
X-8306Y-78144D03*
X-3897Y-78542D03*
X-3920Y-77743D03*
X-3306Y-78109D03*
X-4460Y-78144D03*
X-97Y-78514D03*
X-121Y-77715D03*
X493Y-78081D03*
X-660Y-78117D03*
X3017Y-78573D03*
X2993Y-77774D03*
X3607Y-78140D03*
X2454Y-78176D03*
D16*
X-5759Y-78892D03*
X-13487Y-78877D03*
X-1873Y-78896D03*
X5710Y-78873D03*
X-9806Y-78881D03*
X1891Y-78873D03*
X-5759Y-61097D03*
X-13487Y-61081D03*
X-1873Y-61101D03*
X5710Y-61077D03*
X-9806Y-61085D03*
X1891Y-61077D03*
D15*
X-12327Y-79341D03*
X-11106D03*
X-8665Y-79302D03*
X-9098Y-78239D03*
X-7484Y-79302D03*
X-6421D03*
X-4807Y-79263D03*
X-3862Y-79302D03*
X-2878Y-79263D03*
X-909D03*
X-12406Y-78357D03*
X-1382Y-78160D03*
X-6343Y-78239D03*
X-5240D03*
X35Y-79302D03*
X941D03*
X1413Y-78160D03*
X2752Y-79302D03*
X-2563Y-78239D03*
X4799Y-79263D03*
X4602Y-78357D03*
X-12563Y-60680D03*
Y-61585D03*
X-11657Y-60680D03*
X-11697Y-61585D03*
X-10673Y-60719D03*
X3736Y-79302D03*
X-10791Y-61585D03*
X-7799Y-60759D03*
X-6776Y-60798D03*
X-8035Y-61625D03*
X-7169D03*
X-4689Y-60759D03*
X-3862Y-60719D03*
X-4610Y-61546D03*
X-3114Y-61507D03*
X-3862Y-61546D03*
X-909Y-60719D03*
X-161Y-60680D03*
X626Y-60719D03*
X-949Y-61428D03*
X-8705Y-60798D03*
X-240Y-61428D03*
X626Y-61467D03*
X3106Y-60719D03*
X3067Y-61546D03*
X4012Y-60719D03*
X-2839D03*
X3894Y-61507D03*
X4720Y-61585D03*
X4917Y-60719D03*
D16*
X-17716Y-16274D03*
D14*
X15454Y-17796D03*
X17194Y-31919D03*
X19075Y-17796D03*
X22935D03*
X21005Y-31919D03*
X24816D03*
X26556Y-17796D03*
X27931Y-31919D03*
X14079D03*
X17193Y-31934D03*
X20992D03*
X24820Y-31950D03*
X24819Y-31966D03*
X27922Y-31891D03*
X27921Y-31907D03*
X19072Y-17796D03*
X22918Y-17784D03*
X26541Y-17780D03*
X26524Y-17768D03*
D15*
X15489Y-17211D03*
X15466Y-16451D03*
X16080Y-16778D03*
X14926Y-16814D03*
X19084Y-17207D03*
X19099Y-16526D03*
X19674Y-16774D03*
X18521Y-16810D03*
X22938Y-17211D03*
X22914Y-16412D03*
X23529Y-16778D03*
X22375Y-16814D03*
X26544Y-17195D03*
X26521Y-16396D03*
X27135Y-16762D03*
X25981Y-16798D03*
X14072Y-33341D03*
X14048Y-32542D03*
X14662Y-32908D03*
X13509Y-32944D03*
X17139Y-33384D03*
X17115Y-32585D03*
X17729Y-32951D03*
X16576Y-32987D03*
X20985Y-33384D03*
X20962Y-32585D03*
X21576Y-32951D03*
X20422Y-32987D03*
X24784Y-33357D03*
X24761Y-32558D03*
X25375Y-32924D03*
X24221Y-32959D03*
X27899Y-33416D03*
X27875Y-32617D03*
X28489Y-32983D03*
X27336Y-33018D03*
D16*
X19123Y-33735D03*
X11395Y-33719D03*
X23009Y-33739D03*
X30592Y-33715D03*
X15076Y-33723D03*
X26773Y-33715D03*
X19123Y-15940D03*
X11395Y-15924D03*
X23009Y-15944D03*
X30592Y-15920D03*
X15076Y-15928D03*
X26773Y-15920D03*
D15*
X12555Y-34184D03*
X13776D03*
X16217Y-34144D03*
X15783Y-33081D03*
X17398Y-34144D03*
X18461D03*
X20075Y-34105D03*
X21020Y-34144D03*
X22004Y-34105D03*
X23972D03*
X12476Y-33200D03*
X23500Y-33003D03*
X18539Y-33081D03*
X19642D03*
X24917Y-34144D03*
X25823D03*
X26295Y-33003D03*
X27634Y-34144D03*
X22319Y-33081D03*
X29681Y-34105D03*
X29484Y-33200D03*
X12319Y-15522D03*
Y-16428D03*
X13224Y-15522D03*
X13185Y-16428D03*
X14209Y-15562D03*
X28618Y-34144D03*
X14091Y-16428D03*
X17083Y-15601D03*
X18106Y-15641D03*
X16846Y-16467D03*
X17713D03*
X20193Y-15601D03*
X21020Y-15562D03*
X20272Y-16389D03*
X21768Y-16349D03*
X21020Y-16389D03*
X23972Y-15562D03*
X24720Y-15522D03*
X25508Y-15562D03*
X23933Y-16270D03*
X16177Y-15641D03*
X24642Y-16270D03*
X25508Y-16310D03*
X27988Y-15562D03*
X27949Y-16389D03*
X28894Y-15562D03*
X22043D03*
X28776Y-16349D03*
X29602Y-16428D03*
X29799Y-15562D03*
D14*
X15454Y-40118D03*
X17194Y-54241D03*
X19075Y-40118D03*
X22935D03*
X21005Y-54241D03*
X24816D03*
X26556Y-40118D03*
X27931Y-54241D03*
X14079D03*
X17193Y-54257D03*
X20992D03*
X24820Y-54273D03*
X24819Y-54289D03*
X27922Y-54214D03*
X27921Y-54230D03*
X19072Y-40118D03*
X22918Y-40107D03*
X26541Y-40103D03*
X26524Y-40091D03*
D15*
X15489Y-39534D03*
X15466Y-38774D03*
X16080Y-39101D03*
X14926Y-39136D03*
X19084Y-39530D03*
X19099Y-38849D03*
X19674Y-39097D03*
X18521Y-39132D03*
X22938Y-39534D03*
X22914Y-38735D03*
X23529Y-39101D03*
X22375Y-39136D03*
X26544Y-39518D03*
X26521Y-38719D03*
X27135Y-39085D03*
X25981Y-39121D03*
X14072Y-55664D03*
X14048Y-54865D03*
X14662Y-55231D03*
X13509Y-55266D03*
X17139Y-55707D03*
X17115Y-54908D03*
X17729Y-55274D03*
X16576Y-55310D03*
X20985Y-55707D03*
X20962Y-54908D03*
X21576Y-55274D03*
X20422Y-55310D03*
X24784Y-55680D03*
X24761Y-54881D03*
X25375Y-55247D03*
X24221Y-55282D03*
X27899Y-55739D03*
X27875Y-54940D03*
X28489Y-55306D03*
X27336Y-55341D03*
D16*
X19123Y-56058D03*
X11395Y-56042D03*
X23009Y-56062D03*
X30592Y-56038D03*
X15076Y-56046D03*
X26773Y-56038D03*
X19123Y-38262D03*
X11395Y-38247D03*
X23009Y-38266D03*
X30592Y-38243D03*
X15076Y-38251D03*
X26773Y-38243D03*
D15*
X12555Y-56507D03*
X13776D03*
X16217Y-56467D03*
X15783Y-55404D03*
X17398Y-56467D03*
X18461D03*
X20075Y-56428D03*
X21020Y-56467D03*
X22004Y-56428D03*
X23972D03*
X12476Y-55522D03*
X23500Y-55326D03*
X18539Y-55404D03*
X19642D03*
X24917Y-56467D03*
X25823D03*
X26295Y-55326D03*
X27634Y-56467D03*
X22319Y-55404D03*
X29681Y-56428D03*
X29484Y-55522D03*
X12319Y-37845D03*
Y-38751D03*
X13224Y-37845D03*
X13185Y-38751D03*
X14209Y-37885D03*
X28618Y-56467D03*
X14091Y-38751D03*
X17083Y-37924D03*
X18106Y-37963D03*
X16846Y-38790D03*
X17713D03*
X20193Y-37924D03*
X21020Y-37885D03*
X20272Y-38711D03*
X21768Y-38672D03*
X21020Y-38711D03*
X23972Y-37885D03*
X24720Y-37845D03*
X25508Y-37885D03*
X23933Y-38593D03*
X16177Y-37963D03*
X24642Y-38593D03*
X25508Y-38633D03*
X27988Y-37885D03*
X27949Y-38711D03*
X28894Y-37885D03*
X22043D03*
X28776Y-38672D03*
X29602Y-38751D03*
X29799Y-37885D03*
D14*
X15454Y-62599D03*
X17194Y-76722D03*
X19075Y-62599D03*
X22935D03*
X21005Y-76722D03*
X24816D03*
X26556Y-62599D03*
X27931Y-76722D03*
X14079D03*
X17193Y-76738D03*
X20992D03*
X24820Y-76753D03*
X24819Y-76769D03*
X27922Y-76694D03*
X27921Y-76710D03*
X19072Y-62599D03*
X22918Y-62587D03*
X26541Y-62583D03*
X26524Y-62571D03*
D15*
X15489Y-62014D03*
X15466Y-61255D03*
X16080Y-61581D03*
X14926Y-61617D03*
X19084Y-62010D03*
X19099Y-61329D03*
X19674Y-61577D03*
X18521Y-61613D03*
X22938Y-62014D03*
X22914Y-61215D03*
X23529Y-61581D03*
X22375Y-61617D03*
X26544Y-61999D03*
X26521Y-61199D03*
X27135Y-61566D03*
X25981Y-61601D03*
X14072Y-78144D03*
X14048Y-77345D03*
X14662Y-77711D03*
X13509Y-77747D03*
X17139Y-78188D03*
X17115Y-77388D03*
X17729Y-77755D03*
X16576Y-77790D03*
X20985Y-78188D03*
X20962Y-77388D03*
X21576Y-77755D03*
X20422Y-77790D03*
X24784Y-78160D03*
X24761Y-77361D03*
X25375Y-77727D03*
X24221Y-77762D03*
X27899Y-78219D03*
X27875Y-77420D03*
X28489Y-77786D03*
X27336Y-77821D03*
D16*
X19123Y-78538D03*
X11395Y-78522D03*
X23009Y-78542D03*
X30592Y-78518D03*
X15076Y-78526D03*
X26773Y-78518D03*
X19123Y-60743D03*
X11395Y-60727D03*
X23009Y-60747D03*
X30592Y-60723D03*
X15076Y-60731D03*
X26773Y-60723D03*
D15*
X12555Y-78987D03*
X13776D03*
X16217Y-78948D03*
X15783Y-77885D03*
X17398Y-78948D03*
X18461D03*
X20075Y-78908D03*
X21020Y-78948D03*
X22004Y-78908D03*
X23972D03*
X12476Y-78003D03*
X23500Y-77806D03*
X18539Y-77885D03*
X19642D03*
X24917Y-78948D03*
X25823D03*
X26295Y-77806D03*
X27634Y-78948D03*
X22319Y-77885D03*
X29681Y-78908D03*
X29484Y-78003D03*
X12319Y-60326D03*
Y-61231D03*
X13224Y-60326D03*
X13185Y-61231D03*
X14209Y-60365D03*
X28618Y-78948D03*
X14091Y-61231D03*
X17083Y-60404D03*
X18106Y-60444D03*
X16846Y-61270D03*
X17713D03*
X20193Y-60404D03*
X21020Y-60365D03*
X20272Y-61192D03*
X21768Y-61152D03*
X21020Y-61192D03*
X23972Y-60365D03*
X24720Y-60326D03*
X25508Y-60365D03*
X23933Y-61074D03*
X16177Y-60444D03*
X24642Y-61074D03*
X25508Y-61113D03*
X27988Y-60365D03*
X27949Y-61192D03*
X28894Y-60365D03*
X22043D03*
X28776Y-61152D03*
X29602Y-61231D03*
X29799Y-60365D03*
M02*

